# xmcd
#
# Track frame offsets: 
#        150
#        14766
#        30932
#        47432
#        65579
#        83918
#        95662
#        112573
#        125240
#        150142
#
# Disc length: 2469 seconds
#
# Revision: 1
# Processed by: cddbd v1.5.2PL0 Copyright (c) Steve Scherf et al.
# Submitted via: ExactAudioCopyFreeDBPlugin 1.0
#
DISCID=7009a30a
DTITLE=BuckStorm - Gracias
DYEAR=2005
DGENRE=Christian
TTITLE0=When We Were Kings
TTITLE1=Truck Stop Jesus
TTITLE2=Arms of Jesus
TTITLE3=What Greater Love
TTITLE4=God Loves Broken Angels
TTITLE5=Sandy Haired Boy
TTITLE6=Dark Part of The Road
TTITLE7=How The Story Ends
TTITLE8=This Stormy Sea
TTITLE9=One Day - $2 Dog (Ultra Super-Secret Hidden Track)
EXTD=
EXTT0=
EXTT1=
EXTT2=
EXTT3=
EXTT4=
EXTT5=
EXTT6=
EXTT7=
EXTT8=
EXTT9=
PLAYORDER=
